<svg width="48" height="48" viewBox="0 0 48 48" fill="none" xmlns="http://www.w3.org/2000/svg">
<path d="M6.109 24C6.54607 20.04 8.28987 16.3385 11.065 13.48L14.121 16.535L15.536 15.121L12.535 12.121C15.4943 9.66991 19.163 8.2347 23 8.027V13H25V8.027C28.837 8.23463 32.5057 9.66985 35.465 12.121L32.585 15L34 16.414L36.935 13.479C39.7103 16.3378 41.4541 20.0397 41.891 24H37.684V26H42C42.0041 30.171 40.5518 34.2125 37.894 37.427L34.474 34.007L33.059 35.421L36.537 38.898L36.524 38.91L37.915 40.347C39.8423 38.4859 41.3745 36.2552 42.42 33.7884C43.4656 31.3216 44.0029 28.6692 44 25.99C44 14.95 35.045 6 24 6C12.955 6 4 14.949 4 25.99C3.99398 31.2596 6.07588 36.3169 9.79 40.055L11.21 38.648L11.191 38.628L14.197 35.623L12.783 34.209L9.864 37.127C7.35775 33.96 5.996 30.0387 6 26H10.053V24H6.109Z" fill="#34A119"/>
<path d="M21.519 29.91C21.1328 29.9838 20.7868 30.1961 20.546 30.507L18.908 32.937C18.725 34.15 18.855 34.633 19.573 35.417L22.206 36.701C22.57 36.851 22.976 36.861 23.347 36.733L36.063 30.861C37.954 30.204 37.448 28.244 35.481 28.621L21.519 29.91Z" fill="#34A119"/>
</svg>
