<svg width="45" height="44" viewBox="0 0 45 44" fill="none" xmlns="http://www.w3.org/2000/svg">
<path d="M5.95285 22C6.35351 18.37 7.95199 14.977 10.4959 12.3567L13.2972 15.1571L14.5943 13.8609L11.8434 11.1109C14.5561 8.86409 17.919 7.54847 21.4363 7.35808V11.9167H23.2696V7.35808C26.7868 7.54841 30.1498 8.86403 32.8625 11.1109L30.2225 13.75L31.5196 15.0462L34.21 12.3558C36.7541 14.9763 38.3526 18.3697 38.753 22H34.8966V23.8333H38.8529C38.8567 27.6567 37.5255 31.3615 35.0891 34.3081L31.9541 31.1731L30.657 32.4693L33.8452 35.6565L33.8333 35.6675L35.1084 36.9848C36.875 35.2787 38.2796 33.2339 39.238 30.9727C40.1964 28.7114 40.689 26.2801 40.6863 23.8242C40.6863 13.7042 32.4775 5.5 22.3529 5.5C12.2284 5.5 4.0196 13.7032 4.0196 23.8242C4.01409 28.6546 5.92249 33.2905 9.3271 36.7171L10.6288 35.4273L10.6114 35.409L13.3669 32.6544L12.0707 31.3582L9.39494 34.0331C7.09754 31.13 5.84928 27.5355 5.85294 23.8333H9.56819V22H5.95285Z" fill="#34A119"/>
<path d="M23.8489 33.4574C23.5201 33.6055 23.1484 33.6283 22.8039 33.5216L10.9551 28.5413C9.20152 27.9987 9.63785 26.1947 11.4501 26.4788L24.2688 27.2131C24.6244 27.269 24.948 27.4533 25.1781 27.731L26.7548 29.9053C26.9968 30.8495 26.8932 31.2959 26.2222 32.1988L23.8489 33.4574Z" fill="#34A119"/>
</svg>
